<svg width="32" height="32" viewBox="0 0 32 32" fill="none" xmlns="http://www.w3.org/2000/svg" role="img" aria-label="QSMxT logo">
  <defs>
    <linearGradient id="qsmxt-g" x1="2" y1="2" x2="30" y2="30" gradientUnits="userSpaceOnUse">
      <stop stop-color="#7c6cff"/>
      <stop offset="1" stop-color="#c026d3"/>
    </linearGradient>
  </defs>
  <rect x="1.5" y="1.5" width="29" height="29" rx="8" fill="url(#qsmxt-g)"/>
  <!-- chi (χ) glyph outline from GNU FreeSerif Italic (free font) -->
  <g transform="matrix(0.02786,0,0,-0.02786,9.7864,19.2879)"><path d="M265 -28 252 95 498 431H406L240 203L227 332C222 375 219 441 158 441C90 441 64 356 60 303L81 296C88 339 109 361 149 361C192 361 193 314 197 282L210 164L-52 -195H40L222 57L236 -62C241 -103 246 -205 307 -205C363 -205 398 -133 402 -73L381 -66C374 -86 370 -130 319 -130C279 -130 268 -59 265 -28Z" fill="#fff"/></g>
</svg>
